<?xml version="1.0" encoding="UTF-8"?>
<svg version="1.1" xmlns="http://www.w3.org/2000/svg" width="500" height="500">
<path d="M0 0 C165 0 330 0 500 0 C500 165 500 330 500 500 C335 500 170 500 0 500 C0 335 0 170 0 0 Z " fill="#EF9EBF" transform="translate(0,0)"/>
<path d="M0 0 C3.26294757 1.08764919 3.62169918 1.48851217 5.4609375 4.18359375 C5.92556396 4.85447021 6.39019043 5.52534668 6.86889648 6.21655273 C7.36591064 6.94946533 7.8629248 7.68237793 8.375 8.4375 C9.45603589 10.00068882 10.53810082 11.5631664 11.62109375 13.125 C12.17909668 13.93324219 12.73709961 14.74148437 13.31201172 15.57421875 C15.97215722 19.39707176 18.70272511 23.16784445 21.4375 26.9375 C22.51695246 28.42836704 23.59637933 29.91925261 24.67578125 31.41015625 C25.48716553 32.52994873 25.48716553 32.52994873 26.31494141 33.67236328 C28.08094577 36.11181353 29.84364663 38.5536215 31.60546875 40.99609375 C32.19465088 41.81279541 32.78383301 42.62949707 33.39086914 43.47094727 C34.51915051 45.03510137 35.64725252 46.59938488 36.77514648 48.16381836 C37.28505127 48.87030518 37.79495605 49.57679199 38.3203125 50.3046875 C38.76648926 50.92327637 39.21266602 51.54186523 39.67236328 52.17919922 C40.62284945 53.48275307 41.62856127 54.74672711 42.66748047 55.98095703 C44 58 44 58 44 62 C40.37 62 36.74 62 33 62 C33.7940625 63.12019531 34.588125 64.24039063 35.40625 65.39453125 C36.43786718 66.86693031 37.46909715 68.33960072 38.5 69.8125 C39.02464844 70.55048828 39.54929687 71.28847656 40.08984375 72.04882812 C40.83427734 73.11713867 40.83427734 73.11713867 41.59375 74.20703125 C42.05458984 74.8616333 42.51542969 75.51623535 42.99023438 76.19067383 C44 78 44 78 44 81 C38.06 81.495 38.06 81.495 32 82 C32.86625 83.21558594 33.7325 84.43117188 34.625 85.68359375 C35.75012293 87.26814188 36.87511627 88.85278204 38 90.4375 C38.57234375 91.23994141 39.1446875 92.04238281 39.734375 92.86914062 C40.27578125 93.63291016 40.8171875 94.39667969 41.375 95.18359375 C41.87773438 95.89056396 42.38046875 96.59753418 42.8984375 97.32592773 C44 99 44 99 44 100 C15.29 100 -13.42 100 -43 100 C-38.73366949 93.60050423 -34.42552673 87.28424796 -30 81 C-34.29 81 -38.58 81 -43 81 C-42.13733207 77.54932826 -41.6853927 76.24079002 -39.71484375 73.546875 C-39.26689453 72.928125 -38.81894531 72.309375 -38.35742188 71.671875 C-37.88884766 71.03765625 -37.42027344 70.4034375 -36.9375 69.75 C-36.22883789 68.77546875 -36.22883789 68.77546875 -35.50585938 67.78125 C-34.34276471 66.18346338 -33.17211399 64.59118197 -32 63 C-35.63 62.67 -39.26 62.34 -43 62 C-42.14388046 58.57552184 -41.69718901 57.25062162 -39.76953125 54.55859375 C-39.30361572 53.9025415 -38.8377002 53.24648926 -38.35766602 52.57055664 C-37.84776123 51.86664795 -37.33785645 51.16273926 -36.8125 50.4375 C-36.28003662 49.69298584 -35.74757324 48.94847168 -35.19897461 48.18139648 C-30.62623183 41.81006366 -25.97420536 35.49638254 -21.30859375 29.19287109 C-16.54713558 22.75935985 -11.84869092 16.28222176 -7.17407227 9.78540039 C-4.81077056 6.50167471 -2.44780242 3.2216781 0 0 Z " fill="#FBEAEC" transform="translate(71,200)"/>
<path d="M0 0 C0.66 0 1.32 0 2 0 C3.34241096 1.7386833 4.59560456 3.54627031 5.8125 5.375 C6.61534177 6.56504935 7.42014677 7.75377582 8.2265625 8.94140625 C8.66645508 9.58996582 9.10634766 10.23852539 9.55957031 10.90673828 C12.20649071 14.75329684 14.94916474 18.5307463 17.6875 22.3125 C18.22157471 23.05226074 18.75564941 23.79202148 19.3059082 24.55419922 C20.34973523 25.99637321 21.40032633 27.43367846 22.45800781 28.86572266 C23.50418136 30.3137355 24.51327743 31.78912613 25.48730469 33.28662109 C28.51294536 37.84320698 28.51294536 37.84320698 33.4296875 40 C34.56664063 40 35.70359375 40 36.875 40 C38.60363281 40.0309375 38.60363281 40.0309375 40.3671875 40.0625 C41.23601562 40.041875 42.10484375 40.02125 43 40 C43.495 39.01 43.495 39.01 44 38 C44 38.99 44 39.98 44 41 C38.06 41.495 38.06 41.495 32 42 C32.86625 43.21558594 33.7325 44.43117188 34.625 45.68359375 C35.75012293 47.26814188 36.87511627 48.85278204 38 50.4375 C38.57234375 51.23994141 39.1446875 52.04238281 39.734375 52.86914062 C40.27578125 53.63291016 40.8171875 54.39667969 41.375 55.18359375 C41.87773438 55.89056396 42.38046875 56.59753418 42.8984375 57.32592773 C44 59 44 59 44 60 C15.29 60 -13.42 60 -43 60 C-38.73366949 53.60050423 -34.42552673 47.28424796 -30 41 C-34.29 41 -38.58 41 -43 41 C-42.67 40.34 -42.34 39.68 -42 39 C-41.10539062 39.16242188 -40.21078125 39.32484375 -39.2890625 39.4921875 C-35.18601785 39.92086381 -32.02996278 39.93906134 -28 39 C-24.23162608 35.47611861 -21.83939144 31.46720148 -19.24609375 27.04052734 C-17.15495433 23.6162046 -14.72382634 20.45278654 -12.3125 17.25 C-8.52602316 12.13660422 -4.8640953 6.95945871 -1.33984375 1.66015625 C-0.89769531 1.11230469 -0.45554688 0.56445312 0 0 Z " fill="#FEFEF8" transform="translate(71,240)"/>
<path d="M0 0 C5.8480181 3.445344 10.86865766 8.85088364 13.515625 15.125 C14.01966143 19.31995777 13.97813704 23.52791807 14.015625 27.75 C14.056875 28.88824219 14.098125 30.02648437 14.140625 31.19921875 C14.21485514 39.28102484 12.69108491 44.81962702 7.515625 51.125 C2.2771399 55.923405 -2.29144169 57.2854737 -9.296875 57.375 C-11.10091797 57.41367187 -11.10091797 57.41367187 -12.94140625 57.453125 C-19.39239089 56.8556799 -23.28315494 53.87901217 -27.484375 49.125 C-32.58199643 42.04497023 -32.72122847 36.91495413 -32.796875 28.4375 C-32.82587891 27.37337891 -32.85488281 26.30925781 -32.88476562 25.21289062 C-32.94829186 17.30143117 -31.80789389 11.85097626 -26.484375 5.8828125 C-25.824375 5.34398437 -25.164375 4.80515625 -24.484375 4.25 C-23.824375 3.69570312 -23.164375 3.14140625 -22.484375 2.5703125 C-16.03053486 -2.09359541 -7.53535269 -2.6539607 0 0 Z " fill="#FEFDF7" transform="translate(214.484375,225.875)"/>
<path d="M0 0 C5.08305973 3.84982794 8.77890679 8.36706611 10.8515625 14.40234375 C11.2833605 18.33170558 11.22178806 22.2639922 11.2265625 26.21484375 C11.25105469 27.26994141 11.27554688 28.32503906 11.30078125 29.41210938 C11.33133436 37.58506644 9.76769645 42.83818003 4.6015625 49.15234375 C-2.21949711 54.73321071 -7.81542599 56.17986659 -16.73046875 55.921875 C-23.24272917 54.93201142 -27.16687631 51.48552346 -31.5859375 46.83984375 C-35.78297332 40.29246787 -35.54814327 34.16128869 -35.5859375 26.58984375 C-35.63524414 24.86411133 -35.63524414 24.86411133 -35.68554688 23.10351562 C-35.74003601 14.45955732 -34.0305256 9.74558702 -28.33984375 3.37890625 C-20.27442193 -3.31326629 -9.46666009 -5.47352157 0 0 Z " fill="#FEFDF8" transform="translate(395.1484375,227.59765625)"/>
<path d="M0 0 C30.55 0 30.55 0 36.875 5.5 C39.43414748 8.51076174 39.93632403 10.33776991 40.3125 14.25 C39.91690976 18.99708283 38.71731651 21.11811927 36 25 C35.01 25.33 34.02 25.66 33 26 C33 26.66 33 27.32 33 28 C33.556875 28.20625 34.11375 28.4125 34.6875 28.625 C37.9055426 30.53843074 40.24032345 32.71108074 42 36 C43.07873417 41.58344816 42.19646765 46.26041003 39 51 C34.04298747 55.58523659 30.55587531 56.12471786 23.92578125 56.09765625 C22.67450439 56.09515869 21.42322754 56.09266113 20.1340332 56.09008789 C17.74737427 56.07643188 17.74737427 56.07643188 15.3125 56.0625 C10.259375 56.041875 5.20625 56.02125 0 56 C0 37.52 0 19.04 0 0 Z " fill="#FEFDF8" transform="translate(304,226)"/>
<path d="M0 0 C32.38811881 0 32.38811881 0 38.375 4.97265625 C38.91125 5.66230469 39.4475 6.35195312 40 7.0625 C40.556875 7.75472656 41.11375 8.44695312 41.6875 9.16015625 C45.11202876 13.96061174 44.50031334 19.30357531 44 25 C42.46983881 30.65053499 39.51042106 33.91854295 34.68359375 37.08984375 C30.62258246 39.28523964 26.78344064 39.11635527 22.3125 39.0625 C18.6928125 39.0315625 18.6928125 39.0315625 15 39 C15 44.61 15 50.22 15 56 C10.05 56 5.1 56 0 56 C0 37.52 0 19.04 0 0 Z " fill="#FEFDF7" transform="translate(127,226)"/>
<path d="M0 0 C30.11111111 0 30.11111111 0 37.75 4.6875 C42.09131673 9.14940886 44.21655193 13.75371538 44.5625 20 C44.27640419 26.64150984 41.20073263 30.96029658 36.4375 35.375 C35.633125 35.91125 34.82875 36.4475 34 37 C33.18982422 37.54140625 33.18982422 37.54140625 32.36328125 38.09375 C28.87167081 39.43268161 25.42934522 39.20885761 21.75 39.125 C17.91375 39.063125 17.91375 39.063125 14 39 C14 44.61 14 50.22 14 56 C9.38 56 4.76 56 0 56 C0 37.52 0 19.04 0 0 Z " fill="#FEFEF8" transform="translate(246,226)"/>
<path d="M0 0 C15.51 0 31.02 0 47 0 C45.48259974 3.03480052 44.16230778 5.26500932 42.13671875 7.8984375 C41.30043945 8.98898438 41.30043945 8.98898438 40.44726562 10.1015625 C39.86654297 10.85179687 39.28582031 11.60203125 38.6875 12.375 C38.11837891 13.1175 37.54925781 13.86 36.96289062 14.625 C33.72889291 18.82808314 30.42528999 22.95134579 27 27 C28.43975782 31.35091649 30.6290913 34.18387886 33.625 37.625 C47 53.23079916 47 53.23079916 47 56 C31.82 56 16.64 56 1 56 C2.51740026 52.96519948 3.83769222 50.73499068 5.86328125 48.1015625 C6.42080078 47.37453125 6.97832031 46.6475 7.55273438 45.8984375 C8.13345703 45.14820313 8.71417969 44.39796875 9.3125 43.625 C9.88162109 42.8825 10.45074219 42.14 11.03710938 41.375 C14.27110709 37.17191686 17.57471001 33.04865421 21 29 C19.72077269 26.27070879 18.32672277 23.98059921 16.42578125 21.64453125 C15.92594727 21.02594238 15.42611328 20.40735352 14.91113281 19.77001953 C14.38358398 19.12403809 13.85603516 18.47805664 13.3125 17.8125 C12.23008277 16.47296805 11.14805031 15.13312509 10.06640625 13.79296875 C9.54191895 13.14505371 9.01743164 12.49713867 8.47705078 11.82958984 C6.54972997 9.44226056 4.64336592 7.03933313 2.75 4.625 C2.20859375 3.93664062 1.6671875 3.24828125 1.109375 2.5390625 C0 1 0 1 0 0 Z " fill="#FDF7F4" transform="translate(418,226)"/>
<path d="M0 0 C0.66 0 1.32 0 2 0 C3.26171875 1.5378418 3.26171875 1.5378418 4.6875 3.69921875 C5.21609619 4.4895752 5.74469238 5.27993164 6.28930664 6.09423828 C6.85383545 6.95001465 7.41836426 7.80579102 8 8.6875 C12.60530501 15.5519753 17.35059195 22.1686466 22.453125 28.671875 C27.07120029 34.62618193 31.32137297 40.86182463 35.62353516 47.04589844 C36.55729142 48.37150772 37.50545207 49.68706472 38.46630859 50.99316406 C42 55.79997803 42 55.79997803 42 58 C37.64557344 59.18125401 34.33593102 59.34289978 30 58 C25.57700546 54.03237572 22.67204701 48.51700765 19.58691406 43.50341797 C16.89685707 39.2597496 13.90829282 35.2371049 10.9375 31.1875 C9.86266001 29.7022723 8.78840161 28.21662346 7.71484375 26.73046875 C5.83490742 24.13430246 3.92802475 21.56067446 2 19 C-2.16668461 20.51172231 -4.05070693 23.4707391 -6.4375 27 C-7.31301467 28.25966223 -8.18936067 29.51874694 -9.06640625 30.77734375 C-9.76854248 31.79223877 -9.76854248 31.79223877 -10.48486328 32.82763672 C-13.23590337 36.77200583 -16.05820762 40.66496124 -18.875 44.5625 C-19.6956897 45.70428711 -19.6956897 45.70428711 -20.53295898 46.86914062 C-21.56009115 48.29373447 -22.59427546 49.71328049 -23.63671875 51.12670898 C-24.79850045 52.72311855 -25.901925 54.3617299 -26.9921875 56.0078125 C-29 58 -29 58 -32.015625 58.48828125 C-33.08296875 58.43027344 -34.1503125 58.37226563 -35.25 58.3125 C-36.32765625 58.26738281 -37.4053125 58.22226562 -38.515625 58.17578125 C-39.74539062 58.08876953 -39.74539062 58.08876953 -41 58 C-37.94699458 52.3642565 -34.40679667 47.30916029 -30.5625 42.1875 C-29.30786896 40.5005388 -28.0539804 38.81302518 -26.80078125 37.125 C-26.16736816 36.27292969 -25.53395508 35.42085937 -24.88134766 34.54296875 C-21.97386252 30.61299663 -19.1090705 26.65276869 -16.25 22.6875 C-15.71858398 21.95249268 -15.18716797 21.21748535 -14.63964844 20.46020508 C-12.07868351 16.91178966 -9.538661 13.3509399 -7.03515625 9.76171875 C-6.57399414 9.10405518 -6.11283203 8.4463916 -5.63769531 7.76879883 C-4.77574887 6.53701575 -3.91931029 5.30135382 -3.06933594 4.0612793 C-2.0954123 2.67171233 -1.05402891 1.32982957 0 0 Z " fill="#EF9FC0" transform="translate(71,202)"/>
<path d="M0 0 C3.26294757 1.08764919 3.62169918 1.48851217 5.4609375 4.18359375 C6.15944824 5.19184204 6.15944824 5.19184204 6.87207031 6.22045898 C7.36803711 6.95208252 7.86400391 7.68370605 8.375 8.4375 C9.4388576 9.98002715 10.50400896 11.52166264 11.5703125 13.0625 C12.1262207 13.86816406 12.68212891 14.67382812 13.25488281 15.50390625 C15.03274342 18.0468339 16.84789721 20.55818238 18.6796875 23.0625 C19.27604004 23.8779126 19.87239258 24.6933252 20.48681641 25.53344727 C21.65008247 27.11952881 22.81636302 28.70340443 23.98583984 30.28491211 C24.51129395 31.00428955 25.03674805 31.72366699 25.578125 32.46484375 C26.04637695 33.100271 26.51462891 33.73569824 26.99707031 34.39038086 C28 36 28 36 28 38 C23.2729927 39.25331454 19.6943945 39.4834677 15 38 C9.64912596 33.09388111 5.36514815 26.40734861 2 20 C2 19.34 2 18.68 2 18 C1.34 18 0.68 18 0 18 C-0.226875 18.51304687 -0.45375 19.02609375 -0.6875 19.5546875 C-2.51120114 22.95241642 -4.74595339 26.00153541 -7 29.125 C-7.45117188 29.75792969 -7.90234375 30.39085937 -8.3671875 31.04296875 C-10.13717043 33.50942425 -11.84958086 35.84958086 -14 38 C-17.0390625 38.1953125 -17.0390625 38.1953125 -20.625 38.125 C-22.40777344 38.09792969 -22.40777344 38.09792969 -24.2265625 38.0703125 C-25.59941406 38.03550781 -25.59941406 38.03550781 -27 38 C-23.88222417 32.23403926 -20.23611126 27.05648623 -16.3125 21.8125 C-15.69616699 20.98258545 -15.07983398 20.1526709 -14.44482422 19.29760742 C-12.63414209 16.86185948 -10.81807307 14.43023439 -9 12 C-8.49549316 11.32453125 -7.99098633 10.6490625 -7.47119141 9.953125 C-4.988267 6.62975904 -2.49858597 3.31161791 0 0 Z " fill="#EF9FBF" transform="translate(71,222)"/>
<path d="M0 0 C2.75329021 1.79562405 4.52627461 3.05254922 6 6 C6.15144814 8.95032632 6.23142405 11.86124618 6.25 14.8125 C6.270625 15.62009766 6.29125 16.42769531 6.3125 17.25976562 C6.34354447 21.99792792 6.10500833 25.16395816 3 29 C-0.12942465 30.56471233 -3.61082223 30.69701958 -7 30 C-9.2265625 28.66796875 -9.2265625 28.66796875 -11 26 C-11.59759732 22.32535478 -11.55759909 18.71514153 -11.5 15 C-11.51546875 14.00226563 -11.5309375 13.00453125 -11.546875 11.9765625 C-11.50808921 4.74301217 -11.50808921 4.74301217 -9.18359375 1.34375 C-5.93322429 -0.65647736 -3.73992156 -0.52490127 0 0 Z " fill="#EFA0C0" transform="translate(208,239)"/>
<path d="M0 0 C4.51063108 0.88601682 5.7432797 2.01962088 8.5 5.6875 C9.20467627 9.03972445 9.15401532 12.27422603 9.0625 15.6875 C9.07345703 16.57695312 9.08441406 17.46640625 9.09570312 18.3828125 C9.04879084 22.57364309 8.84231988 25.09499447 6.71484375 28.77734375 C3.7251415 31.35576421 2.19355538 31.35722697 -1.59765625 31.1171875 C-4.514161 30.45842873 -5.79386686 29.07608639 -7.5 26.6875 C-8.76013376 22.90709872 -8.80131603 19.31709239 -8.875 15.375 C-8.93107422 14.25448242 -8.93107422 14.25448242 -8.98828125 13.11132812 C-9.05244908 9.05093075 -8.744707 6.44092554 -6.1953125 3.1875 C-3.5 0.6875 -3.5 0.6875 0 0 Z " fill="#EF9FC0" transform="translate(382.5,238.3125)"/>
<path d="M0 0 C11.22 0 22.44 0 34 0 C32.49382823 3.01234354 31.31220479 5.03611701 29.25 7.56640625 C28.7240625 8.21673828 28.198125 8.86707031 27.65625 9.53710938 C26.83640625 10.53967773 26.83640625 10.53967773 26 11.5625 C24.91559607 12.89626569 23.83222225 14.23086972 22.75 15.56640625 C22.27046875 16.15365479 21.7909375 16.74090332 21.296875 17.34594727 C20.12383084 18.8420644 19.05457233 20.41814151 18 22 C13.7175191 20.46346171 11.5893595 17.22236804 9 13.6875 C8.14623819 12.54527019 7.29207678 11.40333895 6.4375 10.26171875 C5.82648438 9.43486572 5.82648438 9.43486572 5.203125 8.59130859 C4.07338949 7.09706832 2.88215252 5.64989704 1.6875 4.20703125 C0 2 0 2 0 0 Z " fill="#EFA2C1" transform="translate(425,229)"/>
<path d="M0 0 C0.66 0 1.32 0 2 0 C3.26513672 1.37353516 3.26513672 1.37353516 4.6796875 3.2890625 C5.19660156 3.98386719 5.71351563 4.67867188 6.24609375 5.39453125 C6.78363281 6.13058594 7.32117188 6.86664063 7.875 7.625 C8.40480469 8.33785156 8.93460937 9.05070312 9.48046875 9.78515625 C12.44464983 13.79378823 15.22926709 17.84390063 18 22 C6.78 22 -4.44 22 -16 22 C-11.50221592 14.12887786 -11.50221592 14.12887786 -9.4921875 11.796875 C-8.84830078 11.03890625 -8.84830078 11.03890625 -8.19140625 10.265625 C-7.75699219 9.76546875 -7.32257813 9.2653125 -6.875 8.75 C-4.43701029 5.90686331 -2.08257006 3.12385509 0 0 Z " fill="#EF9FBF" transform="translate(441,257)"/>
<path d="M0 0 C4.71332465 -1.06677318 9.42876871 -1.88456997 14 0 C19.11048864 4.58723967 22.82574902 10.95729067 26 17 C26 17.33 26 17.66 26 18 C21.5232078 18.61419405 17.45860286 18.82831842 13 18 C9.45035554 15.20297003 7.31075819 11.84763038 5 8 C4.4740625 7.19304687 3.948125 6.38609375 3.40625 5.5546875 C2.22876658 3.72958819 1.10727562 1.8685276 0 0 Z " fill="#EFA1C0" transform="translate(88,262)"/>
<path d="M0 0 C1.23363281 0.22623047 1.23363281 0.22623047 2.4921875 0.45703125 C-0.47773807 6.7462854 -4.08132229 13.91604943 -9.5078125 18.45703125 C-14.07160807 19.63186971 -17.91149214 19.3647685 -22.5078125 18.45703125 C-18.52014706 7.13376736 -12.699168 -1.33443913 0 0 Z " fill="#EFA1C0" transform="translate(52.5078125,261.54296875)"/>
</svg>
